<?xml version="1.0" encoding="UTF-8"?><svg xmlns="http://www.w3.org/2000/svg" viewBox="0 0 64.86 101.52"><defs><style>.cls-1{mix-blend-mode:lighten;}.cls-2{fill:#ffca06;mix-blend-mode:screen;}.cls-3{isolation:isolate;}</style></defs><g class="cls-3"><g id="Layer_1"><g class="cls-1"><path class="cls-2" d="M39.48,16.92h2.82v8.46h-2.82v-8.46Zm-16.92,8.46v-5.64h-2.82v8.46h2.82v-2.82Zm-11.28,11.28h-2.82V16.92h2.82v-5.64h2.82v-2.82h2.82v-2.82h2.82V2.82h5.64V0h16.92V2.82h5.64v2.82h2.82V14.1h2.82v11.28h-2.82v5.64h-2.82v2.82h-2.82v2.82h-2.82v2.82h-2.82v8.46h-5.64v-2.82h-2.82v2.82h-5.64v-5.64H14.1v-2.82h-2.82v-2.82Zm5.64-16.92v11.28h8.46v-14.1h-8.46v2.82Zm28.2-5.64h-8.46v14.1h8.46V14.1Zm-11.28,2.82h-2.82v14.1h2.82v-14.1Zm31.02,47.94h-2.82v-2.82h-8.46v-2.82h-5.64v-2.82h-2.82v-2.82h2.82v-2.82h5.64v-2.82h5.64v-2.82h4.45v-5.64h-4.45v2.82h-5.64v2.82h-5.64v2.82h-5.64v2.82h-2.82v2.82h-2.82v2.82h-5.64v-2.82h-5.64v-2.82H14.1v-2.82H0v2.82H5.64v2.82H14.1v2.82h8.46v2.82h-5.64v2.82h-2.82v2.82h-5.64v2.82h-2.82v2.82H14.1v-2.82h5.64v-2.82h2.82v-2.82h5.64v-2.82h8.46v2.82h5.64v2.82h11.28v2.82h10.09v-2.82h1.19Zm-22.56,8.46H16.92v5.64h19.74v5.64H16.92v5.64h19.74v5.64H16.92v5.64h31.02v-28.2h-5.64Z"/></g></g></g></svg>