<?xml version="1.0" encoding="UTF-8"?><svg id="Layer_1" xmlns="http://www.w3.org/2000/svg" viewBox="0 0 49.54 44.04"><defs><style>.cls-1{fill:#ffca06;}</style></defs><polygon class="cls-1" points="7.34 1.83 9.17 1.83 11.01 1.83 12.84 1.83 14.68 1.83 16.51 1.83 18.35 1.83 18.35 0 16.51 0 14.68 0 12.84 0 11.01 0 9.17 0 7.34 0 5.5 0 3.67 0 3.67 1.83 5.5 1.83 7.34 1.83"/><rect class="cls-1" x="1.83" y="1.83" width="1.83" height="1.84"/><rect class="cls-1" x="18.35" y="1.83" width="1.83" height="1.84"/><polygon class="cls-1" points="22.02 5.5 23.85 5.5 25.69 5.5 27.52 5.5 29.36 5.5 31.19 5.5 33.03 5.5 34.86 5.5 36.7 5.5 38.53 5.5 40.37 5.5 42.2 5.5 44.04 5.5 45.87 5.5 45.87 3.67 44.04 3.67 42.2 3.67 40.37 3.67 38.53 3.67 36.7 3.67 34.86 3.67 33.03 3.67 31.19 3.67 29.36 3.67 27.52 3.67 25.69 3.67 23.85 3.67 22.02 3.67 20.18 3.67 20.18 5.5 22.02 5.5"/><rect class="cls-1" x="45.87" y="5.5" width="1.83" height="1.84"/><polygon class="cls-1" points="47.71 7.34 47.71 9.17 47.71 11.01 47.71 12.84 45.87 12.84 45.87 14.68 47.71 14.68 47.71 16.51 47.71 18.35 47.71 20.18 47.71 22.02 47.71 23.85 47.71 25.69 47.71 27.52 47.71 29.36 47.71 31.19 47.71 33.03 47.71 34.86 47.71 36.7 47.71 38.53 47.71 40.37 49.54 40.37 49.54 38.53 49.54 36.7 49.54 34.86 49.54 33.03 49.54 31.19 49.54 29.36 49.54 27.52 49.54 25.69 49.54 23.85 49.54 22.02 49.54 20.18 49.54 18.35 49.54 16.51 49.54 14.68 49.54 12.84 49.54 11.01 49.54 9.17 49.54 7.34 47.71 7.34"/><polygon class="cls-1" points="42.2 9.17 40.37 9.17 38.53 9.17 36.7 9.17 34.86 9.17 33.03 9.17 31.19 9.17 29.36 9.17 27.52 9.17 25.69 9.17 23.85 9.17 22.02 9.17 20.18 9.17 18.35 9.17 16.51 9.17 14.68 9.17 12.84 9.17 11.01 9.17 9.17 9.17 7.34 9.17 5.5 9.17 5.5 11.01 7.34 11.01 9.17 11.01 11.01 11.01 12.84 11.01 14.68 11.01 16.51 11.01 18.35 11.01 20.18 11.01 22.02 11.01 23.85 11.01 25.69 11.01 27.52 11.01 29.36 11.01 31.19 11.01 33.03 11.01 34.86 11.01 36.7 11.01 38.53 11.01 40.37 11.01 42.2 11.01 44.04 11.01 44.04 9.17 42.2 9.17"/><rect class="cls-1" x="3.67" y="11.01" width="1.83" height="1.83"/><rect class="cls-1" x="44.04" y="11.01" width="1.83" height="1.83"/><polygon class="cls-1" points="1.83 36.7 1.83 34.86 1.83 33.03 1.83 31.19 1.83 29.36 1.83 27.52 1.83 25.69 1.83 23.85 1.83 22.02 1.83 20.18 1.83 18.35 1.83 16.51 1.83 14.68 3.67 14.68 3.67 12.84 1.83 12.84 1.83 11.01 1.83 9.17 1.83 7.34 1.83 5.5 1.83 3.67 0 3.67 0 5.5 0 7.34 0 9.17 0 11.01 0 12.84 0 14.68 0 16.51 0 18.35 0 20.18 0 22.02 0 23.85 0 25.69 0 27.52 0 29.36 0 31.19 0 33.03 0 34.86 0 36.7 0 38.53 0 40.37 1.83 40.37 1.83 38.53 1.83 36.7"/><rect class="cls-1" x="1.83" y="40.37" width="1.83" height="1.84"/><rect class="cls-1" x="45.87" y="40.37" width="1.83" height="1.84"/><polygon class="cls-1" points="42.2 42.2 40.37 42.2 38.53 42.2 36.7 42.2 34.86 42.2 33.03 42.2 31.19 42.2 29.36 42.2 27.52 42.2 25.69 42.2 23.85 42.2 22.02 42.2 20.18 42.2 18.35 42.2 16.51 42.2 14.68 42.2 12.84 42.2 11.01 42.2 9.17 42.2 7.34 42.2 5.5 42.2 3.67 42.2 3.67 44.04 5.5 44.04 7.34 44.04 9.17 44.04 11.01 44.04 12.84 44.04 14.68 44.04 16.51 44.04 18.35 44.04 20.18 44.04 22.02 44.04 23.85 44.04 25.69 44.04 27.52 44.04 29.36 44.04 31.19 44.04 33.03 44.04 34.86 44.04 36.7 44.04 38.53 44.04 40.37 44.04 42.2 44.04 44.04 44.04 45.87 44.04 45.87 42.2 44.04 42.2 42.2 42.2"/></svg>