<?xml version="1.0" encoding="UTF-8"?><svg xmlns="http://www.w3.org/2000/svg" viewBox="0 0 654.46 35.7"><defs><style>.cls-1{mix-blend-mode:lighten;}.cls-2{fill:#cf5f46;mix-blend-mode:screen;}.cls-3{isolation:isolate;}</style></defs><g class="cls-3"><g id="Layer_1"><g><g class="cls-1"><path class="cls-2" d="M162.51,5.95h.99v2.98h-.99v-2.98Zm-5.95,2.98v-1.98h-.99v2.98h.99v-.99Zm-3.97,3.97h-.99V5.95h.99v-1.98h.99v-.99h.99v-.99h.99V.99h1.98V0h5.95V.99h1.98v.99h.99v2.98h.99v3.97h-.99v1.98h-.99v.99h-.99v.99h-.99v.99h-.99v2.98h-1.98v-.99h-.99v.99h-1.98v-1.98h-3.97v-.99h-.99v-.99Zm1.98-5.95v3.97h2.98V5.95h-2.98v.99Zm9.92-1.98h-2.98v4.96h2.98V4.96Zm-3.97,.99h-.99v4.96h.99V5.95Zm10.91,16.86h-.99v-.99h-2.98v-.99h-1.98v-.99h-.99v-.99h.99v-.99h1.98v-.99h1.98v-.99h1.57v-1.98h-1.57v.99h-1.98v.99h-1.98v.99h-1.98v.99h-.99v.99h-.99v.99h-1.98v-.99h-1.98v-.99h-3.97v-.99h-4.96v.99h1.98v.99h2.98v.99h2.98v.99h-1.98v.99h-.99v.99h-1.98v.99h-.99v.99h2.98v-.99h1.98v-.99h.99v-.99h1.98v-.99h2.98v.99h1.98v.99h3.97v.99h3.55v-.99h.42Zm-7.93,2.98h-8.93v1.98h6.94v1.98h-6.94v1.98h6.94v1.98h-6.94v1.98h10.91v-9.92h-1.98Z"/></g><g class="cls-1"><path class="cls-2" d="M125.35,5.95h.99v2.98h-.99v-2.98Zm-5.95,2.98v-1.98h-.99v2.98h.99v-.99Zm-3.97,3.97h-.99V5.95h.99v-1.98h.99v-.99h.99v-.99h.99V.99h1.98V0h5.95V.99h1.98v.99h.99v2.98h.99v3.97h-.99v1.98h-.99v.99h-.99v.99h-.99v.99h-.99v2.98h-1.98v-.99h-.99v.99h-1.98v-1.98h-3.97v-.99h-.99v-.99Zm1.98-5.95v3.97h2.98V5.95h-2.98v.99Zm9.92-1.98h-2.98v4.96h2.98V4.96Zm-3.97,.99h-.99v4.96h.99V5.95Zm10.91,16.86h-.99v-.99h-2.98v-.99h-1.98v-.99h-.99v-.99h.99v-.99h1.98v-.99h1.98v-.99h1.57v-1.98h-1.57v.99h-1.98v.99h-1.98v.99h-1.98v.99h-.99v.99h-.99v.99h-1.98v-.99h-1.98v-.99h-3.97v-.99h-4.96v.99h1.98v.99h2.98v.99h2.98v.99h-1.98v.99h-.99v.99h-1.98v.99h-.99v.99h2.98v-.99h1.98v-.99h.99v-.99h1.98v-.99h2.98v.99h1.98v.99h3.97v.99h3.55v-.99h.42Zm-7.93,2.98h-8.93v1.98h6.94v1.98h-6.94v1.98h6.94v1.98h-6.94v1.98h10.91v-9.92h-1.98Z"/></g><g class="cls-1"><path class="cls-2" d="M88.2,5.95h.99v2.98h-.99v-2.98Zm-5.95,2.98v-1.98h-.99v2.98h.99v-.99Zm-3.97,3.97h-.99V5.95h.99v-1.98h.99v-.99h.99v-.99h.99V.99h1.98V0h5.95V.99h1.98v.99h.99v2.98h.99v3.97h-.99v1.98h-.99v.99h-.99v.99h-.99v.99h-.99v2.98h-1.98v-.99h-.99v.99h-1.98v-1.98h-3.97v-.99h-.99v-.99Zm1.98-5.95v3.97h2.98V5.95h-2.98v.99Zm9.92-1.98h-2.98v4.96h2.98V4.96Zm-3.97,.99h-.99v4.96h.99V5.95Zm10.91,16.86h-.99v-.99h-2.98v-.99h-1.98v-.99h-.99v-.99h.99v-.99h1.98v-.99h1.98v-.99h1.57v-1.98h-1.57v.99h-1.98v.99h-1.98v.99h-1.98v.99h-.99v.99h-.99v.99h-1.98v-.99h-1.98v-.99h-3.97v-.99h-4.96v.99h1.98v.99h2.98v.99h2.98v.99h-1.98v.99h-.99v.99h-1.98v.99h-.99v.99h2.98v-.99h1.98v-.99h.99v-.99h1.98v-.99h2.98v.99h1.98v.99h3.97v.99h3.55v-.99h.42Zm-7.93,2.98h-8.93v1.98h6.94v1.98h-6.94v1.98h6.94v1.98h-6.94v1.98h10.91v-9.92h-1.98Z"/></g><g class="cls-1"><path class="cls-2" d="M51.04,5.95h.99v2.98h-.99v-2.98Zm-5.95,2.98v-1.98h-.99v2.98h.99v-.99Zm-3.97,3.97h-.99V5.95h.99v-1.98h.99v-.99h.99v-.99h.99V.99h1.98V0h5.95V.99h1.98v.99h.99v2.98h.99v3.97h-.99v1.98h-.99v.99h-.99v.99h-.99v.99h-.99v2.98h-1.98v-.99h-.99v.99h-1.98v-1.98h-3.97v-.99h-.99v-.99Zm1.98-5.95v3.97h2.98V5.95h-2.98v.99Zm9.92-1.98h-2.98v4.96h2.98V4.96Zm-3.97,.99h-.99v4.96h.99V5.95Zm10.91,16.86h-.99v-.99h-2.98v-.99h-1.98v-.99h-.99v-.99h.99v-.99h1.98v-.99h1.98v-.99h1.57v-1.98h-1.57v.99h-1.98v.99h-1.98v.99h-1.98v.99h-.99v.99h-.99v.99h-1.98v-.99h-1.98v-.99h-3.97v-.99h-4.96v.99h1.98v.99h2.98v.99h2.98v.99h-1.98v.99h-.99v.99h-1.98v.99h-.99v.99h2.98v-.99h1.98v-.99h.99v-.99h1.98v-.99h2.98v.99h1.98v.99h3.97v.99h3.55v-.99h.42Zm-7.93,2.98h-8.93v1.98h6.94v1.98h-6.94v1.98h6.94v1.98h-6.94v1.98h10.91v-9.92h-1.98Z"/></g><g class="cls-1"><path class="cls-2" d="M13.88,5.95h.99v2.98h-.99v-2.98Zm-5.95,2.98v-1.98h-.99v2.98h.99v-.99Zm-3.97,3.97h-.99V5.95h.99v-1.98h.99v-.99h.99v-.99h.99V.99h1.98V0h5.95V.99h1.98v.99h.99v2.98h.99v3.97h-.99v1.98h-.99v.99h-.99v.99h-.99v.99h-.99v2.98h-1.98v-.99h-.99v.99h-1.98v-1.98h-3.97v-.99h-.99v-.99Zm1.98-5.95v3.97h2.98V5.95h-2.98v.99Zm9.92-1.98h-2.98v4.96h2.98V4.96Zm-3.97,.99h-.99v4.96h.99V5.95Zm10.91,16.86h-.99v-.99h-2.98v-.99h-1.98v-.99h-.99v-.99h.99v-.99h1.98v-.99h1.98v-.99h1.57v-1.98h-1.57v.99h-1.98v.99h-1.98v.99h-1.98v.99h-.99v.99h-.99v.99h-1.98v-.99h-1.98v-.99h-3.97v-.99H0v.99H1.98v.99h2.98v.99h2.98v.99h-1.98v.99h-.99v.99h-1.98v.99h-.99v.99h2.98v-.99h1.98v-.99h.99v-.99h1.98v-.99h2.98v.99h1.98v.99h3.97v.99h3.55v-.99h.42Zm-7.93,2.98H5.95v1.98h6.94v1.98H5.95v1.98h6.94v1.98H5.95v1.98h10.91v-9.92h-1.98Z"/></g><g class="cls-1"><path class="cls-2" d="M199.66,5.95h.99v2.98h-.99v-2.98Zm-5.95,2.98v-1.98h-.99v2.98h.99v-.99Zm-3.97,3.97h-.99V5.95h.99v-1.98h.99v-.99h.99v-.99h.99V.99h1.98V0h5.95V.99h1.98v.99h.99v2.98h.99v3.97h-.99v1.98h-.99v.99h-.99v.99h-.99v.99h-.99v2.98h-1.98v-.99h-.99v.99h-1.98v-1.98h-3.97v-.99h-.99v-.99Zm1.98-5.95v3.97h2.98V5.95h-2.98v.99Zm9.92-1.98h-2.98v4.96h2.98V4.96Zm-3.97,.99h-.99v4.96h.99V5.95Zm10.91,16.86h-.99v-.99h-2.98v-.99h-1.98v-.99h-.99v-.99h.99v-.99h1.98v-.99h1.98v-.99h1.57v-1.98h-1.57v.99h-1.98v.99h-1.98v.99h-1.98v.99h-.99v.99h-.99v.99h-1.98v-.99h-1.98v-.99h-3.97v-.99h-4.96v.99h1.98v.99h2.98v.99h2.98v.99h-1.98v.99h-.99v.99h-1.98v.99h-.99v.99h2.98v-.99h1.98v-.99h.99v-.99h1.98v-.99h2.98v.99h1.98v.99h3.97v.99h3.55v-.99h.42Zm-7.93,2.98h-8.93v1.98h6.94v1.98h-6.94v1.98h6.94v1.98h-6.94v1.98h10.91v-9.92h-1.98Z"/></g><g class="cls-1"><path class="cls-2" d="M385.44,5.95h.99v2.98h-.99v-2.98Zm-5.95,2.98v-1.98h-.99v2.98h.99v-.99Zm-3.97,3.97h-.99V5.95h.99v-1.98h.99v-.99h.99v-.99h.99V.99h1.98V0h5.95V.99h1.98v.99h.99v2.98h.99v3.97h-.99v1.98h-.99v.99h-.99v.99h-.99v.99h-.99v2.98h-1.98v-.99h-.99v.99h-1.98v-1.98h-3.97v-.99h-.99v-.99Zm1.98-5.95v3.97h2.98V5.95h-2.98v.99Zm9.92-1.98h-2.98v4.96h2.98V4.96Zm-3.97,.99h-.99v4.96h.99V5.95Zm10.91,16.86h-.99v-.99h-2.98v-.99h-1.98v-.99h-.99v-.99h.99v-.99h1.98v-.99h1.98v-.99h1.57v-1.98h-1.57v.99h-1.98v.99h-1.98v.99h-1.98v.99h-.99v.99h-.99v.99h-1.98v-.99h-1.98v-.99h-3.97v-.99h-4.96v.99h1.98v.99h2.98v.99h2.98v.99h-1.98v.99h-.99v.99h-1.98v.99h-.99v.99h2.98v-.99h1.98v-.99h.99v-.99h1.98v-.99h2.98v.99h1.98v.99h3.97v.99h3.55v-.99h.42Zm-7.93,2.98h-8.93v1.98h6.94v1.98h-6.94v1.98h6.94v1.98h-6.94v1.98h10.91v-9.92h-1.98Z"/></g><g class="cls-1"><path class="cls-2" d="M348.29,5.95h.99v2.98h-.99v-2.98Zm-5.95,2.98v-1.98h-.99v2.98h.99v-.99Zm-3.97,3.97h-.99V5.95h.99v-1.98h.99v-.99h.99v-.99h.99V.99h1.98V0h5.95V.99h1.98v.99h.99v2.98h.99v3.97h-.99v1.98h-.99v.99h-.99v.99h-.99v.99h-.99v2.98h-1.98v-.99h-.99v.99h-1.98v-1.98h-3.97v-.99h-.99v-.99Zm1.98-5.95v3.97h2.98V5.95h-2.98v.99Zm9.92-1.98h-2.98v4.96h2.98V4.96Zm-3.97,.99h-.99v4.96h.99V5.95Zm10.91,16.86h-.99v-.99h-2.98v-.99h-1.98v-.99h-.99v-.99h.99v-.99h1.98v-.99h1.98v-.99h1.57v-1.98h-1.57v.99h-1.98v.99h-1.98v.99h-1.98v.99h-.99v.99h-.99v.99h-1.98v-.99h-1.98v-.99h-3.97v-.99h-4.96v.99h1.98v.99h2.98v.99h2.98v.99h-1.98v.99h-.99v.99h-1.98v.99h-.99v.99h2.98v-.99h1.98v-.99h.99v-.99h1.98v-.99h2.98v.99h1.98v.99h3.97v.99h3.55v-.99h.42Zm-7.93,2.98h-8.93v1.98h6.94v1.98h-6.94v1.98h6.94v1.98h-6.94v1.98h10.91v-9.92h-1.98Z"/></g><g class="cls-1"><path class="cls-2" d="M311.13,5.95h.99v2.98h-.99v-2.98Zm-5.95,2.98v-1.98h-.99v2.98h.99v-.99Zm-3.97,3.97h-.99V5.95h.99v-1.98h.99v-.99h.99v-.99h.99V.99h1.98V0h5.95V.99h1.98v.99h.99v2.98h.99v3.97h-.99v1.98h-.99v.99h-.99v.99h-.99v.99h-.99v2.98h-1.98v-.99h-.99v.99h-1.98v-1.98h-3.97v-.99h-.99v-.99Zm1.98-5.95v3.97h2.98V5.95h-2.98v.99Zm9.92-1.98h-2.98v4.96h2.98V4.96Zm-3.97,.99h-.99v4.96h.99V5.95Zm10.91,16.86h-.99v-.99h-2.98v-.99h-1.98v-.99h-.99v-.99h.99v-.99h1.98v-.99h1.98v-.99h1.57v-1.98h-1.57v.99h-1.98v.99h-1.98v.99h-1.98v.99h-.99v.99h-.99v.99h-1.98v-.99h-1.98v-.99h-3.97v-.99h-4.96v.99h1.98v.99h2.98v.99h2.98v.99h-1.98v.99h-.99v.99h-1.98v.99h-.99v.99h2.98v-.99h1.98v-.99h.99v-.99h1.98v-.99h2.98v.99h1.98v.99h3.97v.99h3.55v-.99h.42Zm-7.93,2.98h-8.93v1.98h6.94v1.98h-6.94v1.98h6.94v1.98h-6.94v1.98h10.91v-9.92h-1.98Z"/></g><g class="cls-1"><path class="cls-2" d="M273.98,5.95h.99v2.98h-.99v-2.98Zm-5.95,2.98v-1.98h-.99v2.98h.99v-.99Zm-3.97,3.97h-.99V5.95h.99v-1.98h.99v-.99h.99v-.99h.99V.99h1.98V0h5.95V.99h1.98v.99h.99v2.98h.99v3.97h-.99v1.98h-.99v.99h-.99v.99h-.99v.99h-.99v2.98h-1.98v-.99h-.99v.99h-1.98v-1.98h-3.97v-.99h-.99v-.99Zm1.98-5.95v3.97h2.98V5.95h-2.98v.99Zm9.92-1.98h-2.98v4.96h2.98V4.96Zm-3.97,.99h-.99v4.96h.99V5.95Zm10.91,16.86h-.99v-.99h-2.98v-.99h-1.98v-.99h-.99v-.99h.99v-.99h1.98v-.99h1.98v-.99h1.57v-1.98h-1.57v.99h-1.98v.99h-1.98v.99h-1.98v.99h-.99v.99h-.99v.99h-1.98v-.99h-1.98v-.99h-3.97v-.99h-4.96v.99h1.98v.99h2.98v.99h2.98v.99h-1.98v.99h-.99v.99h-1.98v.99h-.99v.99h2.98v-.99h1.98v-.99h.99v-.99h1.98v-.99h2.98v.99h1.98v.99h3.97v.99h3.55v-.99h.42Zm-7.93,2.98h-8.93v1.98h6.94v1.98h-6.94v1.98h6.94v1.98h-6.94v1.98h10.91v-9.92h-1.98Z"/></g><g class="cls-1"><path class="cls-2" d="M236.82,5.95h.99v2.98h-.99v-2.98Zm-5.95,2.98v-1.98h-.99v2.98h.99v-.99Zm-3.97,3.97h-.99V5.95h.99v-1.98h.99v-.99h.99v-.99h.99V.99h1.98V0h5.95V.99h1.98v.99h.99v2.98h.99v3.97h-.99v1.98h-.99v.99h-.99v.99h-.99v.99h-.99v2.98h-1.98v-.99h-.99v.99h-1.98v-1.98h-3.97v-.99h-.99v-.99Zm1.98-5.95v3.97h2.98V5.95h-2.98v.99Zm9.92-1.98h-2.98v4.96h2.98V4.96Zm-3.97,.99h-.99v4.96h.99V5.95Zm10.91,16.86h-.99v-.99h-2.98v-.99h-1.98v-.99h-.99v-.99h.99v-.99h1.98v-.99h1.98v-.99h1.57v-1.98h-1.57v.99h-1.98v.99h-1.98v.99h-1.98v.99h-.99v.99h-.99v.99h-1.98v-.99h-1.98v-.99h-3.97v-.99h-4.96v.99h1.98v.99h2.98v.99h2.98v.99h-1.98v.99h-.99v.99h-1.98v.99h-.99v.99h2.98v-.99h1.98v-.99h.99v-.99h1.98v-.99h2.98v.99h1.98v.99h3.97v.99h3.55v-.99h.42Zm-7.93,2.98h-8.93v1.98h6.94v1.98h-6.94v1.98h6.94v1.98h-6.94v1.98h10.91v-9.92h-1.98Z"/></g><g class="cls-1"><path class="cls-2" d="M422.6,5.95h.99v2.98h-.99v-2.98Zm-5.95,2.98v-1.98h-.99v2.98h.99v-.99Zm-3.97,3.97h-.99V5.95h.99v-1.98h.99v-.99h.99v-.99h.99V.99h1.98V0h5.95V.99h1.98v.99h.99v2.98h.99v3.97h-.99v1.98h-.99v.99h-.99v.99h-.99v.99h-.99v2.98h-1.98v-.99h-.99v.99h-1.98v-1.98h-3.97v-.99h-.99v-.99Zm1.98-5.95v3.97h2.98V5.95h-2.98v.99Zm9.92-1.98h-2.98v4.96h2.98V4.96Zm-3.97,.99h-.99v4.96h.99V5.95Zm10.91,16.86h-.99v-.99h-2.98v-.99h-1.98v-.99h-.99v-.99h.99v-.99h1.98v-.99h1.98v-.99h1.57v-1.98h-1.57v.99h-1.98v.99h-1.98v.99h-1.98v.99h-.99v.99h-.99v.99h-1.98v-.99h-1.98v-.99h-3.97v-.99h-4.96v.99h1.98v.99h2.98v.99h2.98v.99h-1.98v.99h-.99v.99h-1.98v.99h-.99v.99h2.98v-.99h1.98v-.99h.99v-.99h1.98v-.99h2.98v.99h1.98v.99h3.97v.99h3.55v-.99h.42Zm-7.93,2.98h-8.93v1.98h6.94v1.98h-6.94v1.98h6.94v1.98h-6.94v1.98h10.91v-9.92h-1.98Z"/></g><g class="cls-1"><path class="cls-2" d="M608.38,5.95h.99v2.98h-.99v-2.98Zm-5.95,2.98v-1.98h-.99v2.98h.99v-.99Zm-3.97,3.97h-.99V5.95h.99v-1.98h.99v-.99h.99v-.99h.99V.99h1.98V0h5.95V.99h1.98v.99h.99v2.98h.99v3.97h-.99v1.98h-.99v.99h-.99v.99h-.99v.99h-.99v2.98h-1.98v-.99h-.99v.99h-1.98v-1.98h-3.97v-.99h-.99v-.99Zm1.98-5.95v3.97h2.98V5.95h-2.98v.99Zm9.92-1.98h-2.98v4.96h2.98V4.96Zm-3.97,.99h-.99v4.96h.99V5.95Zm10.91,16.86h-.99v-.99h-2.98v-.99h-1.98v-.99h-.99v-.99h.99v-.99h1.98v-.99h1.98v-.99h1.57v-1.98h-1.57v.99h-1.98v.99h-1.98v.99h-1.98v.99h-.99v.99h-.99v.99h-1.98v-.99h-1.98v-.99h-3.97v-.99h-4.96v.99h1.98v.99h2.98v.99h2.98v.99h-1.98v.99h-.99v.99h-1.98v.99h-.99v.99h2.98v-.99h1.98v-.99h.99v-.99h1.98v-.99h2.98v.99h1.98v.99h3.97v.99h3.55v-.99h.42Zm-7.93,2.98h-8.93v1.98h6.94v1.98h-6.94v1.98h6.94v1.98h-6.94v1.98h10.91v-9.92h-1.98Z"/></g><g class="cls-1"><path class="cls-2" d="M571.22,5.95h.99v2.98h-.99v-2.98Zm-5.95,2.98v-1.98h-.99v2.98h.99v-.99Zm-3.97,3.97h-.99V5.95h.99v-1.98h.99v-.99h.99v-.99h.99V.99h1.98V0h5.95V.99h1.98v.99h.99v2.98h.99v3.97h-.99v1.98h-.99v.99h-.99v.99h-.99v.99h-.99v2.98h-1.98v-.99h-.99v.99h-1.98v-1.98h-3.97v-.99h-.99v-.99Zm1.98-5.95v3.97h2.98V5.95h-2.98v.99Zm9.92-1.98h-2.98v4.96h2.98V4.96Zm-3.97,.99h-.99v4.96h.99V5.95Zm10.91,16.86h-.99v-.99h-2.98v-.99h-1.98v-.99h-.99v-.99h.99v-.99h1.98v-.99h1.98v-.99h1.57v-1.98h-1.57v.99h-1.98v.99h-1.98v.99h-1.98v.99h-.99v.99h-.99v.99h-1.98v-.99h-1.98v-.99h-3.97v-.99h-4.96v.99h1.98v.99h2.98v.99h2.98v.99h-1.98v.99h-.99v.99h-1.98v.99h-.99v.99h2.98v-.99h1.98v-.99h.99v-.99h1.98v-.99h2.98v.99h1.98v.99h3.97v.99h3.55v-.99h.42Zm-7.93,2.98h-8.93v1.98h6.94v1.98h-6.94v1.98h6.94v1.98h-6.94v1.98h10.91v-9.92h-1.98Z"/></g><g class="cls-1"><path class="cls-2" d="M534.07,5.95h.99v2.98h-.99v-2.98Zm-5.95,2.98v-1.98h-.99v2.98h.99v-.99Zm-3.97,3.97h-.99V5.95h.99v-1.98h.99v-.99h.99v-.99h.99V.99h1.98V0h5.95V.99h1.98v.99h.99v2.98h.99v3.97h-.99v1.98h-.99v.99h-.99v.99h-.99v.99h-.99v2.98h-1.98v-.99h-.99v.99h-1.98v-1.98h-3.97v-.99h-.99v-.99Zm1.98-5.95v3.97h2.98V5.95h-2.98v.99Zm9.92-1.98h-2.98v4.96h2.98V4.96Zm-3.97,.99h-.99v4.96h.99V5.95Zm10.91,16.86h-.99v-.99h-2.98v-.99h-1.98v-.99h-.99v-.99h.99v-.99h1.98v-.99h1.98v-.99h1.57v-1.98h-1.57v.99h-1.98v.99h-1.98v.99h-1.98v.99h-.99v.99h-.99v.99h-1.98v-.99h-1.98v-.99h-3.97v-.99h-4.96v.99h1.98v.99h2.98v.99h2.98v.99h-1.98v.99h-.99v.99h-1.98v.99h-.99v.99h2.98v-.99h1.98v-.99h.99v-.99h1.98v-.99h2.98v.99h1.98v.99h3.97v.99h3.55v-.99h.42Zm-7.93,2.98h-8.93v1.98h6.94v1.98h-6.94v1.98h6.94v1.98h-6.94v1.98h10.91v-9.92h-1.98Z"/></g><g class="cls-1"><path class="cls-2" d="M496.91,5.95h.99v2.98h-.99v-2.98Zm-5.95,2.98v-1.98h-.99v2.98h.99v-.99Zm-3.97,3.97h-.99V5.95h.99v-1.98h.99v-.99h.99v-.99h.99V.99h1.98V0h5.95V.99h1.98v.99h.99v2.98h.99v3.97h-.99v1.98h-.99v.99h-.99v.99h-.99v.99h-.99v2.98h-1.98v-.99h-.99v.99h-1.98v-1.98h-3.97v-.99h-.99v-.99Zm1.98-5.95v3.97h2.98V5.95h-2.98v.99Zm9.92-1.98h-2.98v4.96h2.98V4.96Zm-3.97,.99h-.99v4.96h.99V5.95Zm10.91,16.86h-.99v-.99h-2.98v-.99h-1.98v-.99h-.99v-.99h.99v-.99h1.98v-.99h1.98v-.99h1.57v-1.98h-1.57v.99h-1.98v.99h-1.98v.99h-1.98v.99h-.99v.99h-.99v.99h-1.98v-.99h-1.98v-.99h-3.97v-.99h-4.96v.99h1.98v.99h2.98v.99h2.98v.99h-1.98v.99h-.99v.99h-1.98v.99h-.99v.99h2.98v-.99h1.98v-.99h.99v-.99h1.98v-.99h2.98v.99h1.98v.99h3.97v.99h3.55v-.99h.42Zm-7.93,2.98h-8.93v1.98h6.94v1.98h-6.94v1.98h6.94v1.98h-6.94v1.98h10.91v-9.92h-1.98Z"/></g><g class="cls-1"><path class="cls-2" d="M459.75,5.95h.99v2.98h-.99v-2.98Zm-5.95,2.98v-1.98h-.99v2.98h.99v-.99Zm-3.97,3.97h-.99V5.95h.99v-1.98h.99v-.99h.99v-.99h.99V.99h1.98V0h5.95V.99h1.98v.99h.99v2.98h.99v3.97h-.99v1.98h-.99v.99h-.99v.99h-.99v.99h-.99v2.98h-1.98v-.99h-.99v.99h-1.98v-1.98h-3.97v-.99h-.99v-.99Zm1.98-5.95v3.97h2.98V5.95h-2.98v.99Zm9.92-1.98h-2.98v4.96h2.98V4.96Zm-3.97,.99h-.99v4.96h.99V5.95Zm10.91,16.86h-.99v-.99h-2.98v-.99h-1.98v-.99h-.99v-.99h.99v-.99h1.98v-.99h1.98v-.99h1.57v-1.98h-1.57v.99h-1.98v.99h-1.98v.99h-1.98v.99h-.99v.99h-.99v.99h-1.98v-.99h-1.98v-.99h-3.97v-.99h-4.96v.99h1.98v.99h2.98v.99h2.98v.99h-1.98v.99h-.99v.99h-1.98v.99h-.99v.99h2.98v-.99h1.98v-.99h.99v-.99h1.98v-.99h2.98v.99h1.98v.99h3.97v.99h3.55v-.99h.42Zm-7.93,2.98h-8.93v1.98h6.94v1.98h-6.94v1.98h6.94v1.98h-6.94v1.98h10.91v-9.92h-1.98Z"/></g><g class="cls-1"><path class="cls-2" d="M645.53,5.95h.99v2.98h-.99v-2.98Zm-5.95,2.98v-1.98h-.99v2.98h.99v-.99Zm-3.97,3.97h-.99V5.95h.99v-1.98h.99v-.99h.99v-.99h.99V.99h1.98V0h5.95V.99h1.98v.99h.99v2.98h.99v3.97h-.99v1.98h-.99v.99h-.99v.99h-.99v.99h-.99v2.98h-1.98v-.99h-.99v.99h-1.98v-1.98h-3.97v-.99h-.99v-.99Zm1.98-5.95v3.97h2.98V5.95h-2.98v.99Zm9.92-1.98h-2.98v4.96h2.98V4.96Zm-3.97,.99h-.99v4.96h.99V5.95Zm10.91,16.86h-.99v-.99h-2.98v-.99h-1.98v-.99h-.99v-.99h.99v-.99h1.98v-.99h1.98v-.99h1.57v-1.98h-1.57v.99h-1.98v.99h-1.98v.99h-1.98v.99h-.99v.99h-.99v.99h-1.98v-.99h-1.98v-.99h-3.97v-.99h-4.96v.99h1.98v.99h2.98v.99h2.98v.99h-1.98v.99h-.99v.99h-1.98v.99h-.99v.99h2.98v-.99h1.98v-.99h.99v-.99h1.98v-.99h2.98v.99h1.98v.99h3.97v.99h3.55v-.99h.42Zm-7.93,2.98h-8.93v1.98h6.94v1.98h-6.94v1.98h6.94v1.98h-6.94v1.98h10.91v-9.92h-1.98Z"/></g></g></g></g></svg>